<svg xmlns="http://www.w3.org/2000/svg" viewBox="0 0 64 64" role="img" aria-label="PMADRA favicon">
  <rect width="64" height="64" rx="16" fill="#f5fbf8"/>
  <circle cx="32" cy="32" r="22" fill="none" stroke="#1f7a69" stroke-width="4"/>
  <path d="M32 12c2 0 4 2 4 4 0 4-2 6-4 9-2-3-4-5-4-9 0-2 2-4 4-4Z" fill="#1f7a69"/>
  <path d="M18 39c4 7 10 11 14 11s10-4 14-11c1-2 0-4-2-4H20c-2 0-3 2-2 4Z" fill="#17657a"/>
  <path d="M22 35c2-6 6-11 10-14 4 3 8 8 10 14" fill="none" stroke="#0f4f59" stroke-linecap="round" stroke-width="3"/>
  <path d="M32 20v16" fill="none" stroke="#0f4f59" stroke-linecap="round" stroke-width="3"/>
  <path d="M25 27h14" fill="none" stroke="#0f4f59" stroke-linecap="round" stroke-width="3"/>
</svg>
