<svg xmlns="http://www.w3.org/2000/svg" viewBox="0 0 128 128" role="img" aria-label="Pre-Market Authorization Drug Review Assistant logo">
  <defs>
    <linearGradient id="pmadraHalo" x1="0%" y1="0%" x2="100%" y2="100%">
      <stop offset="0%" stop-color="#1f7a69"/>
      <stop offset="100%" stop-color="#0f4f59"/>
    </linearGradient>
    <linearGradient id="pmadraBowl" x1="0%" y1="0%" x2="100%" y2="100%">
      <stop offset="0%" stop-color="#1c9b73"/>
      <stop offset="100%" stop-color="#17657a"/>
    </linearGradient>
  </defs>
  <rect width="128" height="128" rx="28" fill="#f5fbf8"/>
  <circle cx="64" cy="64" r="46" fill="none" stroke="url(#pmadraHalo)" stroke-width="8"/>
  <path d="M64 27c4 0 7 3 7 7 0 6-4 10-7 14-3-4-7-8-7-14 0-4 3-7 7-7Z" fill="#1f7a69"/>
  <path d="M38 78c8 12 21 18 26 18s18-6 26-18c2-3 0-8-4-8H42c-4 0-6 5-4 8Z" fill="url(#pmadraBowl)"/>
  <path d="M45 70c4-12 11-20 19-25 8 5 15 13 19 25" fill="none" stroke="#0f4f59" stroke-linecap="round" stroke-width="5"/>
  <path d="M64 44v28" fill="none" stroke="#0f4f59" stroke-linecap="round" stroke-width="5"/>
  <path d="M53 55h22" fill="none" stroke="#0f4f59" stroke-linecap="round" stroke-width="5"/>
  <path d="M27 83c7 14 18 22 27 25" fill="none" stroke="#7aa45d" stroke-linecap="round" stroke-width="4"/>
  <path d="M101 83c-7 14-18 22-27 25" fill="none" stroke="#7aa45d" stroke-linecap="round" stroke-width="4"/>
  <circle cx="64" cy="64" r="3.5" fill="#f5fbf8"/>
</svg>
